<svg id="Layer_1" data-name="Layer 1" xmlns="http://www.w3.org/2000/svg" viewBox="0 0 664.2824 173.7485">
  <g>
    <path id="logoMark" d="M171.3322,46.365V4.9728a3.7793,3.7793,0,0,0-3.7793-3.7794H3.7794A3.7794,3.7794,0,0,0,0,4.9728V95.32a3.7794,3.7794,0,0,0,3.7794,3.7793h41.392a3.7794,3.7794,0,0,1,3.7794,3.7794v41.3921a3.7794,3.7794,0,0,1-3.7794,3.7794H28.2548a3.7794,3.7794,0,0,1-3.7794-3.7794V127.3541a3.7794,3.7794,0,0,0-3.7794-3.7794H3.7794A3.7794,3.7794,0,0,0,0,127.3541v41.3922a3.7793,3.7793,0,0,0,3.7794,3.7793H167.5529a3.7792,3.7792,0,0,0,3.7793-3.7793V78.3991a3.7793,3.7793,0,0,0-3.7793-3.7794H126.1606a3.7793,3.7793,0,0,1-3.7794-3.7793V29.4483a3.7794,3.7794,0,0,1,3.7794-3.7794h16.9167a3.7794,3.7794,0,0,1,3.7793,3.7794V46.365a3.7793,3.7793,0,0,0,3.7794,3.7793h16.9169A3.7792,3.7792,0,0,0,171.3322,46.365ZM45.1714,74.62H28.2548A3.7793,3.7793,0,0,1,24.4754,70.84V29.4483a3.7794,3.7794,0,0,1,3.7794-3.7794H94.1264a3.7794,3.7794,0,0,1,3.7794,3.7794V46.365a3.7793,3.7793,0,0,1-3.7794,3.7793H52.73a3.7794,3.7794,0,0,0-3.7794,3.7794V70.84A3.7793,3.7793,0,0,1,45.1714,74.62ZM69.63,67.0445h32.0716a3.7794,3.7794,0,0,1,3.7794,3.7793v32.0714a3.7794,3.7794,0,0,1-3.7794,3.7794H69.63a3.7793,3.7793,0,0,1-3.7793-3.7794V70.8238A3.7793,3.7793,0,0,1,69.63,67.0445Zm77.2263,35.8342v41.3921a3.7794,3.7794,0,0,1-3.7793,3.7794H77.2056a3.7794,3.7794,0,0,1-3.7794-3.7794V127.3541a3.7794,3.7794,0,0,1,3.7794-3.7794h41.3962a3.7793,3.7793,0,0,0,3.7794-3.7793V102.8787a3.7794,3.7794,0,0,1,3.7794-3.7794h16.9167A3.7794,3.7794,0,0,1,146.8566,102.8787Z"/>
    <path id="fullLogo" d="M236.46,50.6445v5.6743c0,3.962,5.0322,6.21,11.0283,6.21s10.2793-2.1416,10.2793-6.21c0-5.8886-8.459-7.7089-16.4893-10.9209-10.3857-3.9619-20.1289-8.9941-20.1289-23.02C221.15,5.3535,235.0686,0,248.6662,0c13.0625,0,26.0186,4.9248,26.0186,14.6685v11.35H257.5529V21.2c0-2.998-4.0683-4.604-8.8867-4.604-4.39,0-8.2441,1.2847-8.2441,5.2466,0,5.2466,6.3174,7.4951,13.2764,9.9575,11.6708,4.0689,23.3417,8.8867,23.3417,23.3413,0,17.4527-14.99,23.9839-29.5517,23.9839-14.24,0-28.1592-6.3169-28.1592-18.63v-9.85Zm52.7812-31.479A2.1422,2.1422,0,0,0,286.886,16.81h-4.0684V1.2847h17.1309c5.4609,0,7.8164,2.3554,7.8164,7.8159V25.4824c0,2.7842-.2139,4.7114-.2139,4.7114h.2139c3.1044-5.4609,9.5293-8.78,16.81-8.78,11.1358,0,19.8086,5.1391,19.8086,20.6645V59.96a2.1423,2.1423,0,0,0,2.3555,2.3554h4.0683V77.84H333.676c-5.4609,0-7.8164-2.3554-7.8164-7.8164V45.5049c0-5.1392-2.0342-7.2808-6.1026-7.2808-5.6748,0-9.4228,3.3194-11.0283,8.1372a21.2959,21.2959,0,0,0-.9638,7.0669V77.84H289.2414ZM361.4026,40.58a2.1431,2.1431,0,0,0-2.3565-2.3555h-4.0684V22.6987H372.11c5.46,0,7.8154,2.3555,7.8154,7.8164V59.96a2.1423,2.1423,0,0,0,2.3555,2.3554H386.35V77.84H369.218c-5.46,0-7.8154-2.3554-7.8154-7.8164Zm1.3916-39.2949H378.32v14.99H362.7942Zm57.2793,20.1294c16.2744,0,25.4824,11.35,25.4824,26.6606,0,1.82-.4278,5.5674-.4278,5.5674H410.3293c1.3926,6.96,6.96,10.0649,12.8486,10.0649,7.9239,0,14.669-5.7817,14.669-5.7817l7.3877,12.42a35.539,35.539,0,0,1-23.5557,8.78c-19.7012,0-30.3008-14.24-30.3008-28.9092C391.3781,34.0483,402.299,21.4141,420.0735,21.4141ZM426.6047,42.4c0-3.4263-2.6768-7.0669-6.5312-7.0669-5.3536,0-8.03,2.9981-9.2081,7.0669ZM455.83,14.6685h-7.4942V1.2847h26.0176V56.4263c0,5.2466.9639,7.0664,5.14,7.0664,1.1777,0,2.248-.107,2.248-.107v14.669a50.4107,50.4107,0,0,1-5.5674.3208c-9.85,0-20.3437-2.3555-20.3437-20.8784Zm56.959,6.7456c11.1347,0,14.4541,3.8545,14.4541,3.8545h.2138s-.1064-1.0708-.1064-2.4629v-3.64a2.1423,2.1423,0,0,0-2.3555-2.3554H520.926V1.2847h17.1318c5.46,0,7.8164,2.3554,7.8164,7.8159V59.96a2.1423,2.1423,0,0,0,2.3555,2.3554h4.0684V77.84H535.8088c-5.2461,0-7.1738-2.6767-7.1738-5.2465V71.63h-.2139s-4.6035,7.4946-15.9531,7.4946c-14.99,0-24.8408-11.7778-24.8408-28.9092C487.6272,32.7637,498.12,21.4141,512.7893,21.4141ZM527.886,50.2158c0-6.6382-3.5333-13.1694-10.8145-13.1694-5.7813,0-10.8145,4.7109-10.8145,13.1694,0,8.2446,4.3907,13.5982,10.8145,13.5982C522.6389,63.814,527.886,59.7451,527.886,50.2158Zm-302.8819,61.753h-6.96V95.9082h37.1533c14.8828,0,24.9472,10.9214,24.9472,26.3394s-10.0644,26.5537-24.9472,26.5537H244.1692v23.6626H225.0041Zm26.3389,20.7719c6.21,0,9.208-4.39,9.208-10.4931s-2.9981-10.2788-8.8867-10.2788h-7.4951v20.7719Zm39.0771,2.4624a2.1426,2.1426,0,0,0-2.3554-2.3554h-4.0694V117.3223h16.3819c5.0322,0,7.8164,2.0346,7.8164,7.0669V127.28a15.6719,15.6719,0,0,1-.2139,2.7842h.2139c2.3554-7.4952,9.3154-13.7051,17.56-13.7051a12.5414,12.5414,0,0,1,2.1416.2139v18.2021a19.7083,19.7083,0,0,0-3.748-.3213c-4.39,0-11.5635,1.3921-14.24,9.6362a24.9957,24.9957,0,0,0-.9639,7.4952v20.8789H290.42Zm71.627-19.1655c17.4521,0,31.2646,11.67,31.2646,29.0161,0,17.2383-13.8125,28.6948-31.1582,28.6948s-31.1572-11.4565-31.1572-28.6948C330.9963,127.708,344.8088,116.0376,362.0471,116.0376Zm.1064,42.293c6.7461,0,12.5274-5.0323,12.5274-13.2769,0-8.3516-5.7813-13.5981-12.5274-13.5981s-12.5273,5.2465-12.5273,13.5981C349.6262,153.2983,355.4084,158.3306,362.1535,158.3306Zm42.2881-26.5537h-7.0674V117.3223h7.6026V102.44h17.9873v14.8828h11.5644v14.4546H422.9641v17.8808c0,6.21,6.3174,7.0669,9.8506,7.0669a24.6,24.6,0,0,0,2.4629-.1074v16.061a35.69,35.69,0,0,1-5.0323.3208c-8.78,0-25.8037-2.3554-25.8037-20.8784Zm67.13-15.7393c17.4521,0,31.2646,11.67,31.2646,29.0161,0,17.2383-13.8125,28.6948-31.1582,28.6948s-31.1572-11.4565-31.1572-28.6948C440.5207,127.708,454.3332,116.0376,471.5715,116.0376Zm.1064,42.293c6.7461,0,12.5274-5.0323,12.5274-13.2769,0-8.3516-5.7813-13.5981-12.5274-13.5981s-12.5273,5.2465-12.5273,13.5981C459.1506,153.2983,464.9328,158.3306,471.6779,158.3306Zm67.6631-42.293c7.71,0,20.3438,2.998,20.3438,12.9556v7.602H543.6242v-2.8911c0-1.7129-2.0341-2.3555-4.2832-2.3555-7.8154,0-12.5273,5.8887-12.5273,13.2769,0,9.4224,7.0674,13.1694,13.92,13.1694,7.9229,0,15.2041-7.1733,15.2041-7.1733l7.3877,12.42a32.9374,32.9374,0,0,1-24.4121,10.707c-19.7012,0-30.73-13.705-30.73-28.9091C508.1838,130.2778,518.4631,116.0376,539.341,116.0376Zm58.35,0c17.4522,0,31.2647,11.67,31.2647,29.0161,0,17.2383-13.8125,28.6948-31.1582,28.6948S566.64,162.292,566.64,145.0537C566.64,127.708,580.4524,116.0376,597.6906,116.0376Zm.1065,42.293c6.7461,0,12.5273-5.0323,12.5273-13.2769,0-8.3516-5.7812-13.5981-12.5273-13.5981S585.27,136.7021,585.27,145.0537C585.27,153.2983,591.052,158.3306,597.7971,158.3306Zm40.5742-49.0386h-7.4941V95.9082h26.0175V151.05c0,5.2466.9639,7.0664,5.14,7.0664,1.1777,0,2.248-.1069,2.248-.1069v14.6689a50.41,50.41,0,0,1-5.5673.3208c-9.8506,0-20.3438-2.3554-20.3438-20.8784Z"/>
  </g>
</svg>
