<svg id="Layer_1" data-name="Layer 1" xmlns="http://www.w3.org/2000/svg" viewBox="0 0 171.3322 171.3322">
  <path id="logoMark" d="M171.3322,45.1715V3.7794A3.7793,3.7793,0,0,0,167.5529,0H3.7794A3.7794,3.7794,0,0,0,0,3.7794V94.1265a3.7794,3.7794,0,0,0,3.7794,3.7794h41.392a3.7794,3.7794,0,0,1,3.7794,3.7794v41.3921a3.7794,3.7794,0,0,1-3.7794,3.7794H28.2548a3.7794,3.7794,0,0,1-3.7794-3.7794V126.1607a3.7794,3.7794,0,0,0-3.7794-3.7794H3.7794A3.7794,3.7794,0,0,0,0,126.1607v41.3922a3.7793,3.7793,0,0,0,3.7794,3.7793H167.5529a3.7792,3.7792,0,0,0,3.7793-3.7793V77.2057a3.7793,3.7793,0,0,0-3.7793-3.7794H126.1606a3.7794,3.7794,0,0,1-3.7794-3.7793V28.2549a3.7794,3.7794,0,0,1,3.7794-3.7794h16.9167a3.7794,3.7794,0,0,1,3.7793,3.7794V45.1715a3.7794,3.7794,0,0,0,3.7794,3.7794h16.9169A3.7793,3.7793,0,0,0,171.3322,45.1715ZM45.1714,73.4263H28.2548a3.7794,3.7794,0,0,1-3.7794-3.7793V28.2549a3.7794,3.7794,0,0,1,3.7794-3.7794H94.1264a3.7794,3.7794,0,0,1,3.7794,3.7794V45.1715a3.7794,3.7794,0,0,1-3.7794,3.7794H52.73A3.7794,3.7794,0,0,0,48.9508,52.73V69.647A3.7794,3.7794,0,0,1,45.1714,73.4263ZM69.63,65.8511h32.0716a3.7793,3.7793,0,0,1,3.7794,3.7793v32.0714a3.7794,3.7794,0,0,1-3.7794,3.7794H69.63a3.7793,3.7793,0,0,1-3.7793-3.7794V69.63A3.7792,3.7792,0,0,1,69.63,65.8511Zm77.2263,35.8342v41.3921a3.7794,3.7794,0,0,1-3.7793,3.7794H77.2056a3.7794,3.7794,0,0,1-3.7794-3.7794V126.1607a3.7794,3.7794,0,0,1,3.7794-3.7794h41.3962a3.7794,3.7794,0,0,0,3.7794-3.7794V101.6853a3.7794,3.7794,0,0,1,3.7794-3.7794h16.9167A3.7794,3.7794,0,0,1,146.8566,101.6853Z"/>
</svg>
